<svg xmlns="http://www.w3.org/2000/svg" class='text-primary py-1' style="direction: ltr;" width="240" height="56" viewBox="0 0 174.808 56">
    <g transform="translate(0 0)">
        <g transform="translate(59.582 8.458)">
            <path d="M5.2-7.9a4.032,4.032,0,0,0,.757,2.037A4.409,4.409,0,0,0,9.492-4.635a7.614,7.614,0,0,0,2.437-.324,2.314,2.314,0,0,0,1.776-2.306,1.7,1.7,0,0,0-.87-1.524,9.439,9.439,0,0,0-2.76-.931l-2.152-.472a13.409,13.409,0,0,1-4.36-1.524,4.847,4.847,0,0,1-2.01-4.3A5.714,5.714,0,0,1,3.52-20.455,8.38,8.38,0,0,1,9.3-22.222a8.855,8.855,0,0,1,5.427,1.666,5.921,5.921,0,0,1,2.355,4.835H13.085a2.846,2.846,0,0,0-1.6-2.549,5.493,5.493,0,0,0-2.475-.5,4.711,4.711,0,0,0-2.627.647A2.048,2.048,0,0,0,5.4-16.314a1.7,1.7,0,0,0,.968,1.591,12.031,12.031,0,0,0,2.641.823l3.489.823a8.874,8.874,0,0,1,3.438,1.443,4.864,4.864,0,0,1,1.778,4.06A5.7,5.7,0,0,1,15.605-3.05a8.888,8.888,0,0,1-5.95,1.8A9.725,9.725,0,0,1,3.48-3.023,5.868,5.868,0,0,1,1.23-7.9Zm22.051-8.564h3.9L33.383-5.876l2.293-10.587h4.006l-4.262,14.7H31.468L29.162-12.471,26.828-1.762H22.836l-4.127-14.7h4.127L25.129-5.916Zm18.5-1.753h-3.9v-3.547h3.9Zm-3.9,1.753h3.9v14.7h-3.9Zm13.042-5.381q.364,0,.661.02t.809.061v3.129q-.324-.04-1.086-.061a1.249,1.249,0,0,0-1.052.337,1.223,1.223,0,0,0-.29.789v1.241h2.522v2.711H53.937V-1.762H50.12V-13.617H47.962v-2.711h2.1v-.944a4.967,4.967,0,0,1,.8-3.25Q51.7-21.844,54.894-21.844ZM57.16-13.59v-2.738h2.05v-4.1h3.8v4.1H65.4v2.738H63.013v7.768A1.75,1.75,0,0,0,63.243-4.7a2.525,2.525,0,0,0,1.4.223q.175,0,.371-.007T65.4-4.5v2.873L63.58-1.56q-2.724.094-3.722-.944a2.811,2.811,0,0,1-.647-2.037v-9.05Z" transform="translate(-1.23 22.384)" fill="currentColor"/>
            <text transform="translate(68 20.5)" fill="currentColor" font-size="22" font-family="SegoeUI, Segoe UI">
                <tspan x="0" y="0">Wizard</tspan>
            </text>
        </g>
        <text transform="translate(58.449 45.142)" fill="currentColor" font-size="9" font-family="SegoeUI, Segoe UI">
            <tspan x="0" y="0">Speed .. Clean .. Simple</tspan>
        </text>
        <g transform="translate(0 0)">
            <path d="M72.416,42.654h2.413a18.755,18.755,0,0,1,13.635,5.877l5.607,5.938q-.658.641-1.332,1.262s-1.9,2.039-3.822,4.2l-5.887-6.032Z" transform="translate(-45.915 -27.044)" fill="currentColor"/>
            <path d="M69.931,67.207c-1.274-1.338-2.71-2.85-4.242-4.464-6.212,6.473-31.347,33.039-31.347,33.039l14.82-10.255a116.2,116.2,0,0,0,18.36-15.77l2.261-2.394Z" transform="translate(-21.775 -39.782)" fill="currentColor"/>
            <path d="M38.073,80.446h2.413a18.755,18.755,0,0,0,13.635-5.877l5.607-5.938q-.658-.641-1.332-1.262s-1.9-2.039-3.822-4.2L48.688,69.2Z" transform="translate(-24.14 -40.054)" fill="currentColor"/>
            <path d="M35.588,28.575c-1.274,1.338-2.71,2.85-4.242,4.464C25.135,26.566,0,0,0,0L17.054,11.8A90.229,90.229,0,0,1,31.315,24.05l4.126,4.369Z" transform="translate(0 0.001)" fill="currentColor"/>
            <path d="M71.275,80.769l-8.3-2.3,3.066-3.193Z" transform="translate(-39.929 -47.73)" fill="currentColor"/>
            <path d="M108.222,62.744l-6.8,3.889,1.563,1.6Z" transform="translate(-64.307 -39.782)" fill="currentColor"/>
        </g>
    </g>
</svg>